<svg xmlns="http://www.w3.org/2000/svg" xmlns:xlink="http://www.w3.org/1999/xlink" viewBox="0 0 1180 610" width="1180" height="610" font-family="'SF Mono','JetBrains Mono','Fira Code',ui-monospace,Consolas,monospace">
<defs>
  <linearGradient id="accent" x1="0" y1="0" x2="1" y2="1">
    <stop offset="0" stop-color="#2563EB"/>
    <stop offset="0.5" stop-color="#06B6D4"/>
    <stop offset="1" stop-color="#10B981"/>
    <animateTransform attributeName="gradientTransform" type="translate"
      values="-0.15 0; 0.15 0; -0.15 0" dur="8s" repeatCount="indefinite"/>
  </linearGradient>
  <linearGradient id="shimmer" x1="0" y1="0" x2="1" y2="0">
    <stop offset="0" stop-color="#06B6D4" stop-opacity="0"/>
    <stop offset="0.5" stop-color="#06B6D4" stop-opacity="0.9"/>
    <stop offset="1" stop-color="#06B6D4" stop-opacity="0"/>
    <animateTransform attributeName="gradientTransform" type="translate"
      values="-1 0; 1 0" dur="6s" repeatCount="indefinite"/>
  </linearGradient>
  <radialGradient id="glowA" cx="0.5" cy="0.5" r="0.5">
    <stop offset="0" stop-color="#2563EB" stop-opacity="0.18"/>
    <stop offset="1" stop-color="#2563EB" stop-opacity="0"/>
  </radialGradient>
  <radialGradient id="glowB" cx="0.5" cy="0.5" r="0.5">
    <stop offset="0" stop-color="#06B6D4" stop-opacity="0.18"/>
    <stop offset="1" stop-color="#06B6D4" stop-opacity="0"/>
  </radialGradient>
  <radialGradient id="glowC" cx="0.5" cy="0.5" r="0.5">
    <stop offset="0" stop-color="#10B981" stop-opacity="0.18"/>
    <stop offset="1" stop-color="#10B981" stop-opacity="0"/>
  </radialGradient>
  <filter id="soft" x="-50%" y="-50%" width="200%" height="200%">
    <feGaussianBlur stdDeviation="7"/>
  </filter>
  <clipPath id="card"><rect x="1" y="1" width="1178" height="608" rx="26"/></clipPath>
  <clipPath id="leftclip"><rect x="24" y="24" width="422" height="562" rx="18"/></clipPath>
  <path id="orbit" d="M 130 0 A 130 130 0 1 1 -130 0 A 130 130 0 1 1 130 0" fill="none"/>
  <style>
    text{fill:#0F172A}
    .muted{fill:#475569}
    .grad{fill:url(#accent)}
    .cursor{animation:blink 1s steps(1) infinite}
    @keyframes blink{0%,49%{opacity:1}50%,100%{opacity:0}}
    @keyframes reveal{from{opacity:0;transform:translateY(9px)}to{opacity:1;transform:translateY(0)}}
    @keyframes floaty{0%{opacity:0;transform:translateY(0)}30%{opacity:.8}70%{opacity:.8}100%{opacity:0;transform:translateY(-16px)}}
    @keyframes floatSlow{0%,100%{transform:translateY(0)}50%{transform:translateY(-7px)}}
    @keyframes typeName{from{clip-path:inset(0 100% 0 0)}to{clip-path:inset(0 0 0 0)}}
    @keyframes scan{0%{transform:translateY(-140px);opacity:0}10%{opacity:1}90%{opacity:1}100%{transform:translateY(600px);opacity:0}}
    .name-type{clip-path:inset(0 100% 0 0);animation:typeName 1.6s steps(22,end) .4s forwards}
    .float-slow{animation:floatSlow 6s ease-in-out infinite}
    .role{font-size:19px;font-weight:600;fill:url(#accent)}
    .pill{font-size:13px;fill:#0F172A}
    .lbl{font-size:13px;fill:#475569}
    .val{font-size:13px;fill:#0F172A}
    
    .ph0{opacity:0;animation:ph0 16.0s steps(1,end) infinite;}
    .pc0{clip-path:inset(0 100% 0 0);animation:pc0 16.0s steps(24,end) infinite;}
    @keyframes ph0{0%,0.000%{opacity:0}0.010%,20.625%{opacity:1}24.375%,100%{opacity:0}}
    @keyframes pc0{0%,0.000%{clip-path:inset(0 100% 0 0)}7.500%,20.625%{clip-path:inset(0 0 0 0)}24.375%,100%{clip-path:inset(0 100% 0 0)}}
    .ph1{opacity:0;animation:ph1 16.0s steps(1,end) infinite;}
    .pc1{clip-path:inset(0 100% 0 0);animation:pc1 16.0s steps(24,end) infinite;}
    @keyframes ph1{0%,25.000%{opacity:0}25.010%,45.625%{opacity:1}49.375%,100%{opacity:0}}
    @keyframes pc1{0%,25.000%{clip-path:inset(0 100% 0 0)}32.500%,45.625%{clip-path:inset(0 0 0 0)}49.375%,100%{clip-path:inset(0 100% 0 0)}}
    .ph2{opacity:0;animation:ph2 16.0s steps(1,end) infinite;}
    .pc2{clip-path:inset(0 100% 0 0);animation:pc2 16.0s steps(24,end) infinite;}
    @keyframes ph2{0%,50.000%{opacity:0}50.010%,70.625%{opacity:1}74.375%,100%{opacity:0}}
    @keyframes pc2{0%,50.000%{clip-path:inset(0 100% 0 0)}57.500%,70.625%{clip-path:inset(0 0 0 0)}74.375%,100%{clip-path:inset(0 100% 0 0)}}
    .ph3{opacity:0;animation:ph3 16.0s steps(1,end) infinite;}
    .pc3{clip-path:inset(0 100% 0 0);animation:pc3 16.0s steps(24,end) infinite;}
    @keyframes ph3{0%,75.000%{opacity:0}75.010%,95.625%{opacity:1}99.375%,100%{opacity:0}}
    @keyframes pc3{0%,75.000%{clip-path:inset(0 100% 0 0)}82.500%,95.625%{clip-path:inset(0 0 0 0)}99.375%,100%{clip-path:inset(0 100% 0 0)}}
  </style>
</defs>

<g clip-path="url(#card)">
  <rect width="1180" height="610" fill="#FFFFFF"/>
  <!-- ambient background glows -->
  <circle cx="230" cy="120" r="260" fill="url(#glowA)"/>
  <circle cx="1050" cy="540" r="300" fill="url(#glowB)"/>
  <circle cx="620" cy="330" r="240" fill="url(#glowC)" opacity="0.7"/>
  <!-- faint grid -->
  <g stroke="rgba(15,23,42,0.04)" stroke-width="1">
    <line x1="0" y1="0" x2="0" y2="610"/><line x1="40" y1="0" x2="40" y2="610"/><line x1="80" y1="0" x2="80" y2="610"/><line x1="120" y1="0" x2="120" y2="610"/><line x1="160" y1="0" x2="160" y2="610"/><line x1="200" y1="0" x2="200" y2="610"/><line x1="240" y1="0" x2="240" y2="610"/><line x1="280" y1="0" x2="280" y2="610"/><line x1="320" y1="0" x2="320" y2="610"/><line x1="360" y1="0" x2="360" y2="610"/><line x1="400" y1="0" x2="400" y2="610"/><line x1="440" y1="0" x2="440" y2="610"/><line x1="480" y1="0" x2="480" y2="610"/><line x1="520" y1="0" x2="520" y2="610"/><line x1="560" y1="0" x2="560" y2="610"/><line x1="600" y1="0" x2="600" y2="610"/><line x1="640" y1="0" x2="640" y2="610"/><line x1="680" y1="0" x2="680" y2="610"/><line x1="720" y1="0" x2="720" y2="610"/><line x1="760" y1="0" x2="760" y2="610"/><line x1="800" y1="0" x2="800" y2="610"/><line x1="840" y1="0" x2="840" y2="610"/><line x1="880" y1="0" x2="880" y2="610"/><line x1="920" y1="0" x2="920" y2="610"/><line x1="960" y1="0" x2="960" y2="610"/><line x1="1000" y1="0" x2="1000" y2="610"/><line x1="1040" y1="0" x2="1040" y2="610"/><line x1="1080" y1="0" x2="1080" y2="610"/><line x1="1120" y1="0" x2="1120" y2="610"/><line x1="1160" y1="0" x2="1160" y2="610"/>
    <line x1="0" y1="0" x2="1180" y2="0"/><line x1="0" y1="40" x2="1180" y2="40"/><line x1="0" y1="80" x2="1180" y2="80"/><line x1="0" y1="120" x2="1180" y2="120"/><line x1="0" y1="160" x2="1180" y2="160"/><line x1="0" y1="200" x2="1180" y2="200"/><line x1="0" y1="240" x2="1180" y2="240"/><line x1="0" y1="280" x2="1180" y2="280"/><line x1="0" y1="320" x2="1180" y2="320"/><line x1="0" y1="360" x2="1180" y2="360"/><line x1="0" y1="400" x2="1180" y2="400"/><line x1="0" y1="440" x2="1180" y2="440"/><line x1="0" y1="480" x2="1180" y2="480"/><line x1="0" y1="520" x2="1180" y2="520"/><line x1="0" y1="560" x2="1180" y2="560"/><line x1="0" y1="600" x2="1180" y2="600"/>
  </g>
  <circle cx="703" cy="194" r="1.4" fill="url(#accent)" opacity="0.0" style="animation:floaty 9.3s ease-in-out 3.2s infinite"/><circle cx="788" cy="99" r="1.8" fill="url(#accent)" opacity="0.0" style="animation:floaty 7.1s ease-in-out 2.5s infinite"/><circle cx="532" cy="132" r="1.8" fill="url(#accent)" opacity="0.0" style="animation:floaty 8.1s ease-in-out 0.7s infinite"/><circle cx="497" cy="103" r="1.8" fill="url(#accent)" opacity="0.0" style="animation:floaty 8.9s ease-in-out 1.3s infinite"/><circle cx="312" cy="336" r="1.4" fill="url(#accent)" opacity="0.0" style="animation:floaty 6.7s ease-in-out 1.9s infinite"/><circle cx="410" cy="145" r="1.8" fill="url(#accent)" opacity="0.0" style="animation:floaty 8.9s ease-in-out 0.6s infinite"/><circle cx="168" cy="101" r="1.8" fill="url(#accent)" opacity="0.0" style="animation:floaty 7.0s ease-in-out 2.6s infinite"/><circle cx="683" cy="516" r="1.8" fill="url(#accent)" opacity="0.0" style="animation:floaty 10.6s ease-in-out 1.5s infinite"/><circle cx="408" cy="289" r="1.0" fill="url(#accent)" opacity="0.0" style="animation:floaty 8.9s ease-in-out 5.3s infinite"/><circle cx="959" cy="334" r="1.8" fill="url(#accent)" opacity="0.0" style="animation:floaty 10.9s ease-in-out 2.5s infinite"/><circle cx="740" cy="195" r="1.4" fill="url(#accent)" opacity="0.0" style="animation:floaty 8.1s ease-in-out 0.5s infinite"/><circle cx="682" cy="388" r="1.8" fill="url(#accent)" opacity="0.0" style="animation:floaty 7.8s ease-in-out 4.8s infinite"/><circle cx="180" cy="135" r="1.4" fill="url(#accent)" opacity="0.0" style="animation:floaty 8.4s ease-in-out 0.4s infinite"/><circle cx="674" cy="496" r="1.4" fill="url(#accent)" opacity="0.0" style="animation:floaty 9.6s ease-in-out 2.1s infinite"/><circle cx="985" cy="403" r="1.0" fill="url(#accent)" opacity="0.0" style="animation:floaty 9.1s ease-in-out 1.3s infinite"/><circle cx="628" cy="172" r="1.8" fill="url(#accent)" opacity="0.0" style="animation:floaty 7.2s ease-in-out 5.2s infinite"/>
</g>

<!-- outer border + shimmer -->
<rect x="1" y="1" width="1178" height="608" rx="26" fill="none" stroke="rgba(15,23,42,0.08)" stroke-width="1.5"/>
<rect x="1" y="1" width="1178" height="608" rx="26" fill="none" stroke="url(#shimmer)" stroke-width="1.5"/>

<!-- ================= LEFT PANEL ================= -->
<g>
  <rect x="24" y="24" width="422" height="562" rx="18" fill="#F8FAFC" fill-opacity="0.72" stroke="rgba(15,23,42,0.08)"/>
  <g clip-path="url(#leftclip)">
    <!-- scanline -->
    <rect x="24" y="0" width="422" height="120" fill="rgba(6,182,212,0.08)" style="animation:scan 7s linear infinite"/>
  </g>
  <g transform="translate(235,250)" class="float-slow">
    <circle r="150" fill="url(#glowB)"/>
    <circle r="132" fill="none" stroke="url(#accent)" stroke-width="1.5" opacity="0.55"/>
    <circle r="132" fill="none" stroke="rgba(15,23,42,0.08)" stroke-width="1"/>
    <circle r="3.2" fill="url(#accent)"><animateMotion dur="9s" begin="-0.00s" repeatCount="indefinite"><mpath href="#orbit"/></animateMotion><animate attributeName="opacity" values="0.3;1;0.3" dur="3s" begin="-0.00s" repeatCount="indefinite"/></circle>
<circle r="2.2" fill="url(#accent)"><animateMotion dur="9s" begin="-1.50s" repeatCount="indefinite"><mpath href="#orbit"/></animateMotion><animate attributeName="opacity" values="0.3;1;0.3" dur="3s" begin="-1.50s" repeatCount="indefinite"/></circle>
<circle r="3.2" fill="url(#accent)"><animateMotion dur="9s" begin="-3.00s" repeatCount="indefinite"><mpath href="#orbit"/></animateMotion><animate attributeName="opacity" values="0.3;1;0.3" dur="3s" begin="-3.00s" repeatCount="indefinite"/></circle>
<circle r="2.2" fill="url(#accent)"><animateMotion dur="9s" begin="-4.50s" repeatCount="indefinite"><mpath href="#orbit"/></animateMotion><animate attributeName="opacity" values="0.3;1;0.3" dur="3s" begin="-4.50s" repeatCount="indefinite"/></circle>
<circle r="3.2" fill="url(#accent)"><animateMotion dur="9s" begin="-6.00s" repeatCount="indefinite"><mpath href="#orbit"/></animateMotion><animate attributeName="opacity" values="0.3;1;0.3" dur="3s" begin="-6.00s" repeatCount="indefinite"/></circle>
<circle r="2.2" fill="url(#accent)"><animateMotion dur="9s" begin="-7.50s" repeatCount="indefinite"><mpath href="#orbit"/></animateMotion><animate attributeName="opacity" values="0.3;1;0.3" dur="3s" begin="-7.50s" repeatCount="indefinite"/></circle>

    <circle r="66" fill="#eef2f7" stroke="url(#accent)" stroke-width="1.5"/>
    <circle r="66" fill="url(#glowA)" filter="url(#soft)"/>
    <text x="0" y="18" text-anchor="middle" class="grad" font-size="52" font-weight="700">PA</text>
  </g>
  <text x="235" y="452" text-anchor="middle" font-size="20" font-weight="600">Philip Alex Ambattu</text>
  <text x="235" y="480" text-anchor="middle" class="muted" font-size="13">AI · Data · Computer Vision</text>
  <g transform="translate(235,512)">
    <rect x="-70" y="-14" width="140" height="26" rx="13" fill="rgba(15,23,42,0.03)" stroke="rgba(15,23,42,0.10)"/>
    <circle cx="-50" cy="-1" r="4" fill="#10B981"><animate attributeName="opacity" values="0.4;1;0.4" dur="2s" repeatCount="indefinite"/></circle>
    <text x="-38" y="3" font-size="12" class="muted">available</text>
  </g>
</g>

<!-- ================= RIGHT PANEL ================= -->
<g>
  <rect x="470" y="24" width="686" height="562" rx="18" fill="#F8FAFC" fill-opacity="0.72" stroke="rgba(15,23,42,0.08)"/>
  <!-- window bar -->
  <circle cx="500" cy="58" r="6" fill="#ff5f56"/>
  <circle cx="520" cy="58" r="6" fill="#ffbd2e"/>
  <circle cx="540" cy="58" r="6" fill="#27c93f"/>
  <text x="810" y="62" text-anchor="middle" class="muted" font-size="12">philip@freiburg: ~/profile</text>
  <line x1="470" y1="84" x2="1156" y2="84" stroke="rgba(15,23,42,0.08)"/>

  <!-- greeting + name typing -->
  <text x="500" y="140" font-size="26" font-weight="700">
    <tspan class="muted" font-weight="500">Hi</tspan> <tspan>👋</tspan>  <tspan class="muted" font-weight="500">I'm</tspan> <tspan class="grad name-type">Philip Alex Ambattu</tspan>
  </text>

  <!-- role prompt (cycling) -->
  <text x="500" y="205" class="grad role">&gt;&#160;</text>
  <g class="ph0"><text x="522" y="205" class="role"><tspan class="pc0">AI &amp; Data Engineering</tspan></text></g>
<g class="ph1"><text x="522" y="205" class="role"><tspan class="pc1">Computer Vision Systems</tspan></text></g>
<g class="ph2"><text x="522" y="205" class="role"><tspan class="pc2">Deep Learning</tspan></text></g>
<g class="ph3"><text x="522" y="205" class="role"><tspan class="pc3">AutoML &amp; Model Evaluation</tspan></text></g>

  <rect id="rcursor" x="500" y="190" width="10" height="19" fill="#06B6D4" class="cursor" transform="translate(0,0)">
    <animate attributeName="x" values="522;720;522" keyTimes="0;0.3;1" dur="16.0s" repeatCount="indefinite"/>
  </rect>

  <line x1="500" y1="232" x2="1126" y2="232" stroke="rgba(15,23,42,0.08)"/>

  <!-- info rows -->
  <g style="animation:reveal .6s ease 1.40s both"><text x="500" y="264" class="lbl">📍  Location</text><text x="640" y="264" class="val">Freiburg im Breisgau, Germany</text></g>
  <g style="animation:reveal .6s ease 1.55s both"><text x="500" y="292" class="lbl">🎓  Education</text><text x="640" y="292" class="val">M.Sc. Computer Science in AI · University of Freiburg</text></g>
  <g style="animation:reveal .6s ease 1.70s both"><text x="500" y="320" class="lbl">🎯  Focus</text>
    <text x="640" y="320" class="val">Computer vision for table-tennis analysis;</text>
    <text x="640" y="340" class="val">AutoML, deep learning &amp; trustworthy model eval.</text></g>

  <!-- skills -->
  <text x="500" y="372" class="muted" font-size="12" style="animation:reveal .5s ease 1.8s both">// stack</text>
  <g transform="translate(0,8)">
  <g style="animation:reveal .5s ease 1.90s both"><rect x="500" y="386" width="74" height="30" rx="9" fill="rgba(15,23,42,0.03)" stroke="rgba(15,23,42,0.10)" /><rect x="500" y="386" width="74" height="30" rx="9" fill="none" stroke="url(#accent)" stroke-width="1" opacity="0.0"><animate attributeName="opacity" values="0;0.5;0" dur="4s" begin="0.00s" repeatCount="indefinite"/></rect><text x="537.0" y="405.5" text-anchor="middle" class="pill">Python</text></g>
<g style="animation:reveal .5s ease 1.95s both"><rect x="583" y="386" width="50" height="30" rx="9" fill="rgba(15,23,42,0.03)" stroke="rgba(15,23,42,0.10)" /><rect x="583" y="386" width="50" height="30" rx="9" fill="none" stroke="url(#accent)" stroke-width="1" opacity="0.0"><animate attributeName="opacity" values="0;0.5;0" dur="4s" begin="0.18s" repeatCount="indefinite"/></rect><text x="608.0" y="405.5" text-anchor="middle" class="pill">SQL</text></g>
<g style="animation:reveal .5s ease 2.00s both"><rect x="642" y="386" width="82" height="30" rx="9" fill="rgba(15,23,42,0.03)" stroke="rgba(15,23,42,0.10)" /><rect x="642" y="386" width="82" height="30" rx="9" fill="none" stroke="url(#accent)" stroke-width="1" opacity="0.0"><animate attributeName="opacity" values="0;0.5;0" dur="4s" begin="0.36s" repeatCount="indefinite"/></rect><text x="683.0" y="405.5" text-anchor="middle" class="pill">PyTorch</text></g>
<g style="animation:reveal .5s ease 2.05s both"><rect x="733" y="386" width="74" height="30" rx="9" fill="rgba(15,23,42,0.03)" stroke="rgba(15,23,42,0.10)" /><rect x="733" y="386" width="74" height="30" rx="9" fill="none" stroke="url(#accent)" stroke-width="1" opacity="0.0"><animate attributeName="opacity" values="0;0.5;0" dur="4s" begin="0.54s" repeatCount="indefinite"/></rect><text x="770.0" y="405.5" text-anchor="middle" class="pill">OpenCV</text></g>
<g style="animation:reveal .5s ease 2.10s both"><rect x="816" y="386" width="122" height="30" rx="9" fill="rgba(15,23,42,0.03)" stroke="rgba(15,23,42,0.10)" /><rect x="816" y="386" width="122" height="30" rx="9" fill="none" stroke="url(#accent)" stroke-width="1" opacity="0.0"><animate attributeName="opacity" values="0;0.5;0" dur="4s" begin="0.72s" repeatCount="indefinite"/></rect><text x="877.0" y="405.5" text-anchor="middle" class="pill">scikit-learn</text></g>
<g style="animation:reveal .5s ease 2.15s both"><rect x="947" y="386" width="66" height="30" rx="9" fill="rgba(15,23,42,0.03)" stroke="rgba(15,23,42,0.10)" /><rect x="947" y="386" width="66" height="30" rx="9" fill="none" stroke="url(#accent)" stroke-width="1" opacity="0.0"><animate attributeName="opacity" values="0;0.5;0" dur="4s" begin="0.90s" repeatCount="indefinite"/></rect><text x="980.0" y="405.5" text-anchor="middle" class="pill">NumPy</text></g>
<g style="animation:reveal .5s ease 2.20s both"><rect x="1022" y="386" width="74" height="30" rx="9" fill="rgba(15,23,42,0.03)" stroke="rgba(15,23,42,0.10)" /><rect x="1022" y="386" width="74" height="30" rx="9" fill="none" stroke="url(#accent)" stroke-width="1" opacity="0.0"><animate attributeName="opacity" values="0;0.5;0" dur="4s" begin="1.08s" repeatCount="indefinite"/></rect><text x="1059.0" y="405.5" text-anchor="middle" class="pill">Pandas</text></g>
<g style="animation:reveal .5s ease 2.25s both"><rect x="500" y="425" width="50" height="30" rx="9" fill="rgba(15,23,42,0.03)" stroke="rgba(15,23,42,0.10)" /><rect x="500" y="425" width="50" height="30" rx="9" fill="none" stroke="url(#accent)" stroke-width="1" opacity="0.0"><animate attributeName="opacity" values="0;0.5;0" dur="4s" begin="1.26s" repeatCount="indefinite"/></rect><text x="525.0" y="444.5" text-anchor="middle" class="pill">C++</text></g>
<g style="animation:reveal .5s ease 2.30s both"><rect x="559" y="425" width="122" height="30" rx="9" fill="rgba(15,23,42,0.03)" stroke="rgba(15,23,42,0.10)" /><rect x="559" y="425" width="122" height="30" rx="9" fill="none" stroke="url(#accent)" stroke-width="1" opacity="0.0"><animate attributeName="opacity" values="0;0.5;0" dur="4s" begin="1.44s" repeatCount="indefinite"/></rect><text x="620.0" y="444.5" text-anchor="middle" class="pill">Google Cloud</text></g>
<g style="animation:reveal .5s ease 2.35s both"><rect x="690" y="425" width="90" height="30" rx="9" fill="rgba(15,23,42,0.03)" stroke="rgba(15,23,42,0.10)" /><rect x="690" y="425" width="90" height="30" rx="9" fill="none" stroke="url(#accent)" stroke-width="1" opacity="0.0"><animate attributeName="opacity" values="0;0.5;0" dur="4s" begin="1.62s" repeatCount="indefinite"/></rect><text x="735.0" y="444.5" text-anchor="middle" class="pill">BigQuery</text></g>
<g style="animation:reveal .5s ease 2.40s both"><rect x="789" y="425" width="98" height="30" rx="9" fill="rgba(15,23,42,0.03)" stroke="rgba(15,23,42,0.10)" /><rect x="789" y="425" width="98" height="30" rx="9" fill="none" stroke="url(#accent)" stroke-width="1" opacity="0.0"><animate attributeName="opacity" values="0;0.5;0" dur="4s" begin="1.80s" repeatCount="indefinite"/></rect><text x="838.0" y="444.5" text-anchor="middle" class="pill">Cloud Run</text></g>
<g style="animation:reveal .5s ease 2.45s both"><rect x="896" y="425" width="146" height="30" rx="9" fill="rgba(15,23,42,0.03)" stroke="rgba(15,23,42,0.10)" /><rect x="896" y="425" width="146" height="30" rx="9" fill="none" stroke="url(#accent)" stroke-width="1" opacity="0.0"><animate attributeName="opacity" values="0;0.5;0" dur="4s" begin="1.98s" repeatCount="indefinite"/></rect><text x="969.0" y="444.5" text-anchor="middle" class="pill">Cloud Functions</text></g>
<g style="animation:reveal .5s ease 2.50s both"><rect x="500" y="464" width="106" height="30" rx="9" fill="rgba(15,23,42,0.03)" stroke="rgba(15,23,42,0.10)" /><rect x="500" y="464" width="106" height="30" rx="9" fill="none" stroke="url(#accent)" stroke-width="1" opacity="0.0"><animate attributeName="opacity" values="0;0.5;0" dur="4s" begin="2.16s" repeatCount="indefinite"/></rect><text x="553.0" y="483.5" text-anchor="middle" class="pill">Databricks</text></g>
<g style="animation:reveal .5s ease 2.55s both"><rect x="615" y="464" width="50" height="30" rx="9" fill="rgba(15,23,42,0.03)" stroke="rgba(15,23,42,0.10)" /><rect x="615" y="464" width="50" height="30" rx="9" fill="none" stroke="url(#accent)" stroke-width="1" opacity="0.0"><animate attributeName="opacity" values="0;0.5;0" dur="4s" begin="2.34s" repeatCount="indefinite"/></rect><text x="640.0" y="483.5" text-anchor="middle" class="pill">Git</text></g>
<g style="animation:reveal .5s ease 2.60s both"><rect x="674" y="464" width="66" height="30" rx="9" fill="rgba(15,23,42,0.03)" stroke="rgba(15,23,42,0.10)" /><rect x="674" y="464" width="66" height="30" rx="9" fill="none" stroke="url(#accent)" stroke-width="1" opacity="0.0"><animate attributeName="opacity" values="0;0.5;0" dur="4s" begin="2.52s" repeatCount="indefinite"/></rect><text x="707.0" y="483.5" text-anchor="middle" class="pill">Linux</text></g>

  </g>

  <!-- socials -->
  <g transform="translate(500,560)" style="animation:reveal .6s ease 2.7s both">
    <g transform="translate(0,-14) scale(1.1)"><path fill="url(#accent)" d="M8 0C3.58 0 0 3.58 0 8c0 3.54 2.29 6.53 5.47 7.59.4.07.55-.17.55-.38 0-.19-.01-.82-.01-1.49-2.01.37-2.53-.49-2.69-.94-.09-.23-.48-.94-.82-1.13-.28-.15-.68-.52-.01-.53.63-.01 1.08.58 1.23.82.72 1.21 1.87.87 2.33.66.07-.52.28-.87.51-1.07-1.78-.2-3.64-.89-3.64-3.95 0-.87.31-1.59.82-2.15-.08-.2-.36-1.02.08-2.12 0 0 .67-.21 2.2.82a7.6 7.6 0 012-.27c.68 0 1.36.09 2 .27 1.53-1.04 2.2-.82 2.2-.82.44 1.1.16 1.92.08 2.12.51.56.82 1.27.82 2.15 0 3.07-1.87 3.75-3.65 3.95.29.25.54.73.54 1.48 0 1.07-.01 1.93-.01 2.2 0 .21.15.46.55.38A8.01 8.01 0 0016 8c0-4.42-3.58-8-8-8z"/></g>
    <text x="24" y="0" font-size="13" class="val">GitHub</text>

    <g transform="translate(120,-15) scale(0.75)"><path fill="url(#accent)" d="M20.447 20.452h-3.554v-5.569c0-1.328-.027-3.037-1.852-3.037-1.853 0-2.136 1.445-2.136 2.939v5.667H9.351V9h3.414v1.561h.046c.477-.9 1.637-1.85 3.37-1.85 3.601 0 4.267 2.37 4.267 5.455v6.286zM5.337 7.433a2.062 2.062 0 01-2.063-2.065 2.064 2.064 0 112.063 2.065zm1.782 13.019H3.555V9h3.564v11.452zM22.225 0H1.771C.792 0 0 .774 0 1.729v20.542C0 23.227.792 24 1.771 24h20.451C23.2 24 24 23.227 24 22.271V1.729C24 .774 23.2 0 22.225 0z"/></g>
    <text x="150" y="0" font-size="13" class="val">LinkedIn</text>

    <g transform="translate(258,-13) scale(0.9)"><path fill="url(#accent)" d="M4 4h16c1.1 0 2 .9 2 2v12c0 1.1-.9 2-2 2H4c-1.1 0-2-.9-2-2V6c0-1.1.9-2 2-2zm0 2.2V8l8 5 8-5V6.2l-8 5-8-5z"/></g>
    <text x="284" y="0" font-size="13" class="val">Email</text>
  </g>
</g>
</svg>